<?xml version="1.0" encoding="utf-8"?>
<!-- Generator: Adobe Illustrator 15.0.0, SVG Export Plug-In . SVG Version: 6.00 Build 0)  -->
<!DOCTYPE svg PUBLIC "-//W3C//DTD SVG 1.1//EN" "http://www.w3.org/Graphics/SVG/1.1/DTD/svg11.dtd">
<svg version="1.1" xmlns="http://www.w3.org/2000/svg" xmlns:xlink="http://www.w3.org/1999/xlink" x="0px" y="0px" width="30px"
	 height="30px" viewBox="0 0 30 30" enable-background="new 0 0 30 30" xml:space="preserve">
<g id="DO_NOT_EDIT_-_BOUNDING_BOX">
	<rect id="BOUNDING_BOX" fill="none" width="30" height="30"/>
</g>
<g id="PLACE_YOUR_GRAPHIC_HERE">
	<path opacity="0.3" d="M30.761,27.938c-0.021-0.025-0.045-0.05-0.07-0.073c0.187-0.182,0.302-0.436,0.302-0.716v-1.428
		c0-0.28-0.115-0.533-0.3-0.714c0.185-0.182,0.3-0.435,0.3-0.715v-1.428c0-0.28-0.115-0.533-0.301-0.715
		c0.186-0.182,0.301-0.435,0.301-0.715v-1.428c0-0.28-0.115-0.533-0.3-0.715c0.185-0.181,0.3-0.434,0.3-0.714V17.15
		c0-0.28-0.115-0.533-0.3-0.715c0.185-0.181,0.3-0.434,0.3-0.714v-1.429c0-0.552-0.447-1-1-1h-1.857c0,0,0-0.168-0.001-0.181
		c0.048-0.348-0.028-0.644-0.211-0.863c-0.19-0.242-0.555-0.394-0.862-0.394c-0.071,0-0.163,0.005-0.211,0.01
		c-0.011,0-0.103,0.004-0.145,0.006v-0.435c0-0.153-0.034-0.298-0.096-0.428h3.383c0.553,0,1-0.448,1-1v-10c0-0.552-0.447-1-1-1
		H19.991c-0.279,0-0.532,0.115-0.714,0.299c-0.181-0.185-0.434-0.299-0.713-0.299c0,0-1.172,0-1.187,0.001
		C17.311-1,17.246-1.006,17.188-1.006c-0.226,0-0.497,0.09-0.673,0.23c-0.035,0.027-0.066,0.055-0.095,0.084
		c-0.182-0.185-0.434-0.3-0.714-0.3H12.85c-0.552,0-1,0.448-1,1v1.429c0,0.279,0.115,0.532,0.299,0.714
		c-0.346,0.333-0.316,0.771-0.299,1c0,0.01,0.004,0.101,0.006,0.143h-0.436c-0.153,0-0.298,0.034-0.428,0.096V0.008
		c0-0.552-0.448-1-1-1h-10c-0.552,0-1,0.448-1,1v10c0,0.552,0.448,1,1,1h0.524c-0.062,0.13-0.096,0.275-0.096,0.428v0.429h-0.429
		c-0.552,0-1,0.448-1,1v2.857c0,0.28,0.115,0.533,0.3,0.714c-0.186,0.182-0.3,0.435-0.3,0.715v1.428c0,0.28,0.115,0.533,0.3,0.714
		c-0.186,0.182-0.3,0.435-0.3,0.715v9.999c0,0.553,0.448,1,1,1h10c0.552,0,1-0.447,1-1v-0.523c0.13,0.062,0.275,0.096,0.428,0.096
		h0.429v0.428c0,0.553,0.448,1,1,1h1.428c0.28,0,0.533-0.115,0.714-0.301c0.182,0.186,0.435,0.301,0.715,0.301h14.285
		c0.553,0,1-0.447,1-1c0,0,0-1.167-0.001-1.179C31.02,28.638,31.037,28.272,30.761,27.938z M22.85,20.435
		c-0.153,0-0.299,0.034-0.429,0.097v-0.524c0-0.153-0.034-0.299-0.097-0.429h2.478c-0.063,0.13-0.097,0.275-0.097,0.429v0.523
		c-0.13-0.062-0.274-0.096-0.427-0.096H22.85z M17.136,21.864c-0.153,0-0.299,0.034-0.429,0.097V18.15h0.857v0.428
		c0,0.553,0.447,1,1,1h0.523c-0.063,0.13-0.097,0.275-0.097,0.429v1.428c0,0.28,0.115,0.533,0.301,0.715
		c-0.005,0.005-0.01,0.009-0.015,0.014c-0.181-0.185-0.434-0.299-0.713-0.299H17.136z M16.136,4.722h-0.429
		c-0.154,0-0.299,0.035-0.429,0.097v-1.05c0.13,0.062,0.275,0.097,0.429,0.097h0.429V4.722z M7.564,11.436v0.525
		c-0.13-0.062-0.275-0.096-0.428-0.096H5.708c-0.153,0-0.298,0.035-0.428,0.096v-0.525c0-0.153-0.034-0.298-0.096-0.428H7.66
		C7.599,11.138,7.564,11.283,7.564,11.436z M6.708,18.578v-0.524c0.13,0.063,0.275,0.097,0.429,0.097h0.428v0.428
		c0,0.153,0.035,0.299,0.096,0.429H6.611C6.673,18.877,6.708,18.731,6.708,18.578z M10.993,24.816v-3.905
		c0.13,0.062,0.275,0.096,0.428,0.096h0.429v1.857c0,0.279,0.115,0.532,0.3,0.714c-0.185,0.182-0.3,0.435-0.3,0.714v0.429h-0.429
		C11.268,24.721,11.123,24.755,10.993,24.816z"/>
	<path opacity="0.15" d="M15.707,31.006c-0.28,0-0.533-0.115-0.715-0.301c-0.181,0.186-0.435,0.301-0.714,0.301H12.85
		c-0.552,0-1-0.447-1-1v-0.428h-0.429c-0.153,0-0.298-0.034-0.428-0.096v0.523c0,0.553-0.448,1-1,1h-10c-0.552,0-1-0.447-1-1v-9.999
		c0-0.28,0.115-0.533,0.3-0.715c-0.186-0.181-0.3-0.434-0.3-0.714V17.15c0-0.28,0.115-0.533,0.3-0.715
		c-0.186-0.181-0.3-0.434-0.3-0.714v-2.857c0-0.552,0.448-1,1-1h0.429v-0.429c0-0.153,0.034-0.298,0.096-0.428h-0.524
		c-0.552,0-1-0.448-1-1v-10c0-0.552,0.448-1,1-1h10c0.552,0,1,0.448,1,1V3.39c0.13-0.062,0.275-0.096,0.428-0.096h0.436
		c-0.002-0.042-0.006-0.133-0.006-0.143c-0.017-0.229-0.047-0.667,0.299-1C11.965,1.97,11.85,1.717,11.85,1.438V0.008
		c0-0.552,0.448-1,1-1h2.857c0.28,0,0.532,0.115,0.714,0.3c0.028-0.029,0.06-0.057,0.095-0.084c0.176-0.14,0.447-0.23,0.673-0.23
		c0.058,0,0.122,0.005,0.189,0.015c0.015,0,1.187-0.001,1.187-0.001c0.279,0,0.532,0.115,0.713,0.299
		c0.182-0.185,0.435-0.299,0.714-0.299h10.001c0.553,0,1,0.448,1,1v10c0,0.552-0.447,1-1,1h-3.383
		c0.062,0.13,0.096,0.275,0.096,0.428v0.435c0.042-0.002,0.134-0.006,0.145-0.006c0.048-0.005,0.14-0.01,0.211-0.01
		c0.308,0,0.672,0.151,0.862,0.394c0.183,0.22,0.259,0.516,0.211,0.863c0.001,0.013,0.001,0.181,0.001,0.181h1.857
		c0.553,0,1,0.448,1,1v1.429c0,0.28-0.115,0.533-0.3,0.714c0.185,0.182,0.3,0.435,0.3,0.715v1.428c0,0.28-0.115,0.533-0.3,0.714
		c0.185,0.182,0.3,0.435,0.3,0.715v1.428c0,0.28-0.115,0.533-0.301,0.715c0.186,0.182,0.301,0.435,0.301,0.715v1.428
		c0,0.28-0.115,0.533-0.3,0.715c0.185,0.181,0.3,0.434,0.3,0.714v1.428c0,0.28-0.115,0.534-0.302,0.716
		c0.025,0.023,0.049,0.048,0.07,0.073c0.276,0.335,0.259,0.7,0.23,0.89c0.001,0.012,0.001,1.179,0.001,1.179c0,0.553-0.447,1-1,1
		H15.707z M10.993,24.816c0.13-0.062,0.275-0.096,0.428-0.096h0.429v-0.429c0-0.279,0.115-0.532,0.3-0.714
		c-0.185-0.182-0.3-0.435-0.3-0.714v-1.857h-0.429c-0.153,0-0.298-0.034-0.428-0.096V24.816z M18.564,21.864
		c0.279,0,0.532,0.114,0.713,0.299c0.005-0.005,0.01-0.009,0.015-0.014c-0.186-0.182-0.301-0.435-0.301-0.715v-1.428
		c0-0.153,0.034-0.299,0.097-0.429h-0.523c-0.553,0-1-0.447-1-1V18.15h-0.857v3.811c0.13-0.063,0.275-0.097,0.429-0.097H18.564z
		 M22.324,19.578c0.063,0.13,0.097,0.275,0.097,0.429v0.524c0.13-0.063,0.275-0.097,0.429-0.097h1.429
		c0.152,0,0.297,0.034,0.427,0.096v-0.523c0-0.153,0.034-0.299,0.097-0.429H22.324z M7.661,19.007
		c-0.062-0.13-0.096-0.275-0.096-0.429V18.15H7.136c-0.153,0-0.299-0.034-0.429-0.097v0.524c0,0.153-0.035,0.299-0.096,0.429H7.661z
		 M5.184,11.008c0.062,0.13,0.096,0.275,0.096,0.428v0.525c0.13-0.062,0.275-0.096,0.428-0.096h1.429
		c0.153,0,0.298,0.035,0.428,0.096v-0.525c0-0.153,0.034-0.298,0.096-0.428H5.184z M15.278,4.819
		c0.13-0.062,0.275-0.097,0.429-0.097h0.429V3.866h-0.429c-0.154,0-0.299-0.035-0.429-0.097V4.819z"/>
	<path opacity="0.15" d="M18.564,11.436V8.579h-1.429v2.857H18.564z M27.135,2.866H22.85v4.286h4.285V2.866z M8.564,11.436v1.143
		c0.038,0.065-0.046,0.229,0,0.286c0.019,0.022,0.251,0,0.286,0h0.572c0.084,0,0.205-0.021,0.286,0c0.051,0.013,0.25-0.035,0.286,0
		v-1.429H8.564z M29.992,0.008H19.991v10h10.001V0.008z M28.563,8.579h-7.143V1.438h7.143V8.579z M-0.006,12.865v2.857h0.571
		c0.092,0,0.194-0.011,0.286,0c0.093,0.011,0.191-0.005,0.285,0c0.042,0.002,0.259-0.027,0.286,0v-2.857H-0.006z M4.279,11.436
		H1.422v1.429h2.857V11.436z M5.708,17.437c-0.037-0.065,0.047-0.229,0-0.286c-0.019-0.023-0.252,0-0.286,0
		c-0.092,0-0.193,0.011-0.285,0c-0.092-0.012-0.194,0-0.286,0H4.279v-2.857H3.137c-0.065,0.038-0.229-0.046-0.286,0
		c-0.022,0.019,0,0.252,0,0.286c0,0.088,0.017,0.2,0,0.285c-0.017,0.086,0,0.198,0,0.286c0,0.084,0.021,0.204,0,0.285
		c-0.013,0.051,0.035,0.251,0,0.286c-0.048,0.048-0.229-0.039-0.286,0H1.422c0.047,0.048-0.039,0.228,0,0.286v1.143h-1.429v1.428
		h5.714V17.437z M9.993,0.008h-10v10h10V0.008z M8.564,8.579H1.422V1.438h7.142V8.579z M7.136,2.866H2.851v4.286h4.286V2.866z
		 M-0.006,30.006h10v-9.999h-10V30.006z M1.422,21.435h7.142v7.144H1.422V21.435z M5.708,12.865v2.857h1.429v-2.857H5.708z
		 M2.851,27.148h4.286v-4.284H2.851V27.148z M12.85,0.008v1.429h2.857V0.008H12.85z M29.992,15.722v-1.429h-2.857v1.429H29.992z
		 M28.563,21.435h1.429v-1.428h-1.429V21.435z M27.135,21.435v-1.428h-1.43v1.428H27.135z M12.85,30.006h1.428v-0.57
		c0-0.093-0.011-0.194,0-0.287s-0.004-0.19,0-0.285c0.002-0.042-0.026-0.259,0-0.285H12.85V30.006z M21.421,21.435v-1.428h-1.43
		v1.428H21.421z M29.992,28.578c-0.02-0.023-0.252,0-0.287,0h-0.57c-0.084,0-0.204,0.02-0.286,0c-0.05-0.014-0.25,0.035-0.285,0
		c-0.048-0.048,0.037-0.229,0-0.285v-1.145h1.429v-1.428h-2.857v1.428h-1.43v-1.428h1.43v-1.429h2.857v-1.428h-4.287v1.428h-1.427
		v1.429H22.85v-1.429h-1.429v-1.428h-1.142c-0.066,0.037-0.23-0.046-0.288,0c-0.021,0.019,0,0.252,0,0.285
		c0,0.092,0.012,0.194,0,0.285c-0.011,0.093,0,0.194,0,0.286v0.571h-1.427v1.429h-1.429v-1.429H12.85v1.429h2.857v1.428h-1.429v1.43
		c0.048-0.048,0.229,0.037,0.287,0h1.143v1.428h14.285v-1.143C29.955,28.799,30.039,28.635,29.992,28.578z M18.564,28.578h-1.429
		v-1.43h1.429V28.578z M21.421,27.148h-1.43v-1.428h1.43V27.148z M24.278,28.578H22.85v-1.43h1.429V28.578z M11.421,25.721v2.857
		h1.429v-2.857H11.421z M18.564,22.864h-1.429v1.428h1.429V22.864z M24.278,22.864v-1.43H22.85v1.43H24.278z M14.278,20.007H12.85
		v2.857h2.857V17.15h-1.429V20.007z M13.135,12.865h1.143v2.857h1.429v1.429h2.857v1.428h8.57v-2.856h-1.43v-1.429h1.43V13.15
		c-0.037-0.064,0.048-0.228,0-0.286c-0.018-0.022-0.253,0-0.285,0c-0.093,0-0.193,0.011-0.286,0c-0.092-0.011-0.192,0-0.285,0
		h-0.573v-1.429h-1.427v2.857H22.85v-2.857h-2.858v1.429h-1.427v2.857h-1.429v-4.286h-1.429V8.579h1.429V7.151h1.429V0.008h-1.144
		c-0.065,0.038-0.229-0.046-0.285,0c-0.023,0.019,0,0.252,0,0.286v0.571c0,0.084,0.021,0.205,0,0.286
		c-0.013,0.051,0.034,0.251,0,0.286c-0.048,0.047-0.229-0.039-0.286,0h-1.143v1.428h1.429v2.856h-1.429v0.572
		c0,0.092,0.011,0.194,0,0.286c-0.012,0.093,0.004,0.192,0,0.286c-0.002,0.042,0.027,0.259,0,0.286
		c-0.048,0.048-0.229-0.039-0.287,0h-1.143V2.866h-1.143c-0.065,0.038-0.229-0.046-0.285,0c-0.023,0.018,0,0.251,0,0.286
		c0,0.092,0.011,0.194,0,0.286c-0.011,0.092,0,0.193,0,0.286v0.572h-1.429v1.143c0.037,0.064-0.046,0.228,0,0.285
		c0.019,0.023,0.252,0,0.287,0h0.571c0.084,0,0.205-0.02,0.286,0c0.051,0.013,0.25-0.035,0.286,0c0.047,0.048-0.039,0.229,0,0.286
		v1.143h-1.429v4.285h0.572c0.092,0,0.194-0.011,0.286,0c0.093,0.012,0.192-0.005,0.286,0c0.042,0.003,0.258-0.027,0.286,0
		c0.047,0.048-0.039,0.229,0,0.286v1.143C12.897,12.817,13.078,12.903,13.135,12.865z M22.85,15.722h1.429v1.429H22.85V15.722z
		 M19.991,14.293h1.43v1.429h-1.43V14.293z M12.85,10.008V8.579h1.428v1.429H12.85z M14.278,17.15v-1.429h-2.857v4.285h1.429V17.15
		H14.278z M8.564,16.863v-1.142c-0.048,0.048-0.229-0.039-0.286,0H7.136v1.429h1.428C8.517,17.103,8.603,16.922,8.564,16.863z
		 M9.708,17.15H9.136c-0.084,0-0.205,0.021-0.286,0c-0.051-0.014-0.25,0.034-0.286,0v1.428h1.429v-1.142
		c-0.038-0.065,0.046-0.229,0-0.286C9.974,17.127,9.742,17.15,9.708,17.15z M29.992,17.15h-1.429v1.428h1.429V17.15z M11.421,14.293
		h1.429v-0.571c0-0.092-0.011-0.194,0-0.285c0.011-0.093-0.006-0.191,0-0.286c0.002-0.042-0.028-0.258,0-0.286H9.993
		c0.047,0.048-0.039,0.229,0,0.286v1.143H8.564v0.571c0,0.093,0.011,0.194,0,0.286c-0.012,0.093,0.005,0.191,0,0.285
		c-0.002,0.042,0.027,0.259,0,0.286h2.856V14.293z"/>
	<linearGradient id="SVGID_1_" gradientUnits="userSpaceOnUse" x1="15.0005" y1="30.0059" x2="15.0005" y2="-0.0054">
		<stop  offset="0" style="stop-color:#D0CBC5"/>
		<stop  offset="0.5031" style="stop-color:#FAFCEF"/>
		<stop  offset="0.9693" style="stop-color:#FFFFFF"/>
	</linearGradient>
	<path fill="url(#SVGID_1_)" d="M18.564,11.436V8.579h-1.429v2.857H18.564z M27.135,2.866H22.85v4.286h4.285V2.866z M8.564,11.436
		v1.143c0.038,0.065-0.046,0.229,0,0.286c0.019,0.022,0.251,0,0.286,0h0.572c0.084,0,0.205-0.021,0.286,0
		c0.051,0.013,0.25-0.035,0.286,0v-1.429H8.564z M29.992,0.008H19.991v10h10.001V0.008z M28.563,8.579h-7.143V1.438h7.143V8.579z
		 M-0.006,12.865v2.857h0.571c0.092,0,0.194-0.011,0.286,0c0.093,0.011,0.191-0.005,0.285,0c0.042,0.002,0.259-0.027,0.286,0v-2.857
		H-0.006z M4.279,11.436H1.422v1.429h2.857V11.436z M5.708,17.437c-0.037-0.065,0.047-0.229,0-0.286c-0.019-0.023-0.252,0-0.286,0
		c-0.092,0-0.193,0.011-0.285,0c-0.092-0.012-0.194,0-0.286,0H4.279v-2.857H3.137c-0.065,0.038-0.229-0.046-0.286,0
		c-0.022,0.019,0,0.252,0,0.286c0,0.088,0.017,0.2,0,0.285c-0.017,0.086,0,0.198,0,0.286c0,0.084,0.021,0.204,0,0.285
		c-0.013,0.051,0.035,0.251,0,0.286c-0.048,0.048-0.229-0.039-0.286,0H1.422c0.047,0.048-0.039,0.228,0,0.286v1.143h-1.429v1.428
		h5.714V17.437z M9.993,0.008h-10v10h10V0.008z M8.564,8.579H1.422V1.438h7.142V8.579z M7.136,2.866H2.851v4.286h4.286V2.866z
		 M-0.006,30.006h10v-9.999h-10V30.006z M1.422,21.435h7.142v7.144H1.422V21.435z M5.708,12.865v2.857h1.429v-2.857H5.708z
		 M2.851,27.148h4.286v-4.284H2.851V27.148z M12.85,0.008v1.429h2.857V0.008H12.85z M29.992,15.722v-1.429h-2.857v1.429H29.992z
		 M28.563,21.435h1.429v-1.428h-1.429V21.435z M27.135,21.435v-1.428h-1.43v1.428H27.135z M12.85,30.006h1.428v-0.57
		c0-0.093-0.011-0.194,0-0.287s-0.004-0.19,0-0.285c0.002-0.042-0.026-0.259,0-0.285H12.85V30.006z M21.421,21.435v-1.428h-1.43
		v1.428H21.421z M29.992,28.578c-0.02-0.023-0.252,0-0.287,0h-0.57c-0.084,0-0.204,0.02-0.286,0c-0.05-0.014-0.25,0.035-0.285,0
		c-0.048-0.048,0.037-0.229,0-0.285v-1.145h1.429v-1.428h-2.857v1.428h-1.43v-1.428h1.43v-1.429h2.857v-1.428h-4.287v1.428h-1.427
		v1.429H22.85v-1.429h-1.429v-1.428h-1.142c-0.066,0.037-0.23-0.046-0.288,0c-0.021,0.019,0,0.252,0,0.285
		c0,0.092,0.012,0.194,0,0.285c-0.011,0.093,0,0.194,0,0.286v0.571h-1.427v1.429h-1.429v-1.429H12.85v1.429h2.857v1.428h-1.429v1.43
		c0.048-0.048,0.229,0.037,0.287,0h1.143v1.428h14.285v-1.143C29.955,28.799,30.039,28.635,29.992,28.578z M18.564,28.578h-1.429
		v-1.43h1.429V28.578z M21.421,27.148h-1.43v-1.428h1.43V27.148z M24.278,28.578H22.85v-1.43h1.429V28.578z M11.421,25.721v2.857
		h1.429v-2.857H11.421z M18.564,22.864h-1.429v1.428h1.429V22.864z M24.278,22.864v-1.43H22.85v1.43H24.278z M14.278,20.007H12.85
		v2.857h2.857V17.15h-1.429V20.007z M13.135,12.865h1.143v2.857h1.429v1.429h2.857v1.428h8.57v-2.856h-1.43v-1.429h1.43V13.15
		c-0.037-0.064,0.048-0.228,0-0.286c-0.018-0.022-0.253,0-0.285,0c-0.093,0-0.193,0.011-0.286,0c-0.092-0.011-0.192,0-0.285,0
		h-0.573v-1.429h-1.427v2.857H22.85v-2.857h-2.858v1.429h-1.427v2.857h-1.429v-4.286h-1.429V8.579h1.429V7.151h1.429V0.008h-1.144
		c-0.065,0.038-0.229-0.046-0.285,0c-0.023,0.019,0,0.252,0,0.286v0.571c0,0.084,0.021,0.205,0,0.286
		c-0.013,0.051,0.034,0.251,0,0.286c-0.048,0.047-0.229-0.039-0.286,0h-1.143v1.428h1.429v2.856h-1.429v0.572
		c0,0.092,0.011,0.194,0,0.286c-0.012,0.093,0.004,0.192,0,0.286c-0.002,0.042,0.027,0.259,0,0.286
		c-0.048,0.048-0.229-0.039-0.287,0h-1.143V2.866h-1.143c-0.065,0.038-0.229-0.046-0.285,0c-0.023,0.018,0,0.251,0,0.286
		c0,0.092,0.011,0.194,0,0.286c-0.011,0.092,0,0.193,0,0.286v0.572h-1.429v1.143c0.037,0.064-0.046,0.228,0,0.285
		c0.019,0.023,0.252,0,0.287,0h0.571c0.084,0,0.205-0.02,0.286,0c0.051,0.013,0.25-0.035,0.286,0c0.047,0.048-0.039,0.229,0,0.286
		v1.143h-1.429v4.285h0.572c0.092,0,0.194-0.011,0.286,0c0.093,0.012,0.192-0.005,0.286,0c0.042,0.003,0.258-0.027,0.286,0
		c0.047,0.048-0.039,0.229,0,0.286v1.143C12.897,12.817,13.078,12.903,13.135,12.865z M22.85,15.722h1.429v1.429H22.85V15.722z
		 M19.991,14.293h1.43v1.429h-1.43V14.293z M12.85,10.008V8.579h1.428v1.429H12.85z M14.278,17.15v-1.429h-2.857v4.285h1.429V17.15
		H14.278z M8.564,16.863v-1.142c-0.048,0.048-0.229-0.039-0.286,0H7.136v1.429h1.428C8.517,17.103,8.603,16.922,8.564,16.863z
		 M9.708,17.15H9.136c-0.084,0-0.205,0.021-0.286,0c-0.051-0.014-0.25,0.034-0.286,0v1.428h1.429v-1.142
		c-0.038-0.065,0.046-0.229,0-0.286C9.974,17.127,9.742,17.15,9.708,17.15z M29.992,17.15h-1.429v1.428h1.429V17.15z M11.421,14.293
		h1.429v-0.571c0-0.092-0.011-0.194,0-0.285c0.011-0.093-0.006-0.191,0-0.286c0.002-0.042-0.028-0.258,0-0.286H9.993
		c0.047,0.048-0.039,0.229,0,0.286v1.143H8.564v0.571c0,0.093,0.011,0.194,0,0.286c-0.012,0.093,0.005,0.191,0,0.285
		c-0.002,0.042,0.027,0.259,0,0.286h2.856V14.293z"/>
</g>
</svg>
